# xmcd
#
# Track frame offsets:
#	150
#	8562
#	15538
#	24993
#	33987
#	51705
#	61751
#	77504
#	91378
#	101140
#	112107
#	127659
#	139943
#	157107
#	169238
#	184668
#	194851
#	209059
#	223353
#	237212
#	248269
#	255008
#	262135
#	269193
#	285050
#	295943
#	309328
#	325295
#	334025
#	345676
#
# Disc length: 4776 seconds
#
# Revision: 0
# Processed by: cddbd v1.5.2PL0 Copyright (c) Steve Scherf et al.
# Submitted via: audiograbber 1.83.01
#
DISCID=bb12a61e
DTITLE=Группа Товарищей - Концерт в клубе "АрктикА" май 2006г.
DYEAR=2006
DGENRE=
TTITLE0=На фоне Пушкина 
TTITLE1=Мой город
TTITLE2=Меняют люди адреса...
TTITLE3=Над Канадой
TTITLE4=Снегопад
TTITLE5=То рыдает , то хохочет...
TTITLE6=Огромный собачий секрет
TTITLE7=Метрополитен
TTITLE8=Песенка короткая...
TTITLE9=Я гляжу сквозь тебя...
TTITLE10=Вилковская фантазия
TTITLE11=О Пскове
TTITLE12=Вересковый куст
TTITLE13=Как над Волгой-рекой
TTITLE14=Осенняя песня
TTITLE15=Предчувствие?
TTITLE16=Джанис
TTITLE17=Марш энтузиастов
TTITLE18=Кензель
TTITLE19=Японская песенка
TTITLE20=А.Мирзаян
TTITLE21=Не видала ль девица...
TTITLE22=Абракадабра
TTITLE23=Куда ты уехала Сьюзен?
TTITLE24=Ночной дождь
TTITLE25=Марк Шагал
TTITLE26=Заезжий музыкант
TTITLE27=Мадагаскар
TTITLE28=Всю ночь кричали петухи
TTITLE29=Прощальня песня
EXTD=
EXTT0=Б.Окуджава
EXTT1=Б.Окуджава, В.Берковский
EXTT2=Г. Шпаликов, С.Никитин
EXTT3=А.Городницкий
EXTT4=Ю.Мориц, В.Берковский\n
EXTT5=Г.Васильев, А.Иващенко
EXTT6=Ю.Мориц, С.Никитин\n
EXTT7=Г.Васильев, А.Иващенко
EXTT8=Б.Окуджава
EXTT9=Ю.Визбор
EXTT10=Б.Окуджава
EXTT11=Е.Клячкин
EXTT12=Ю.Визбор
EXTT13=А.Краснопольский
EXTT14=Е.Клячкин
EXTT15=А.Краснопольский
EXTT16=Е.Фролова
EXTT17=А.Д'Актиль, И.Дунаевский
EXTT18=И.Северянин, И.Дорофеев
EXTT19=В.Шимберев
EXTT20=
EXTT21=А.Пушкин, А.Шнитке
EXTT22=Ю.Мориц, С.Никитин
EXTT23=Д.Сухарев, В.Берковский\n
EXTT24=А.Тарковский, В.иВ.Мищуки
EXTT25=Р.Рождественский, В.Берковский\n
EXTT26=Б.Окуджава
EXTT27=Ю.Визбор
EXTT28=Б.Окуджава
EXTT29=Ю.Ким, Ген.Гладков
PLAYORDER=
